
<svg id="bunny" data-stellar-ratio="1.5" version="1.1" xmlns="http://www.w3.org/2000/svg" xmlns:xlink="http://www.w3.org/1999/xlink" x="0px" y="0px"
	 width="274.13px" height="106.367px" viewBox="0 0 274.13 106.367" enable-background="new 0 0 274.13 106.367"
	 xml:space="preserve">
	<g class="foot">
		<polygon fill="#C88966" points="203.56,78.986 218.912,70.475 215.175,60.037 198.539,30.03 180.055,40.277 197.256,71.308 		"/>
		<polygon fill="#C88966" points="218.912,70.475 203.56,78.986 191.017,90.818 195.095,98.176 226.626,80.696 222.326,72.94 		"/>
		
			<rect x="178.066" y="30.351" transform="matrix(-0.8746 0.4849 -0.4849 -0.8746 370.0745 -27.809)" fill="#A64942" width="21.135" height="7.213"/>
		
			<rect x="179.207" y="25.626" transform="matrix(-0.8746 0.4849 -0.4849 -0.8746 354.6311 -32.8892)" fill="#E0C5BA" width="4.723" height="7.583"/>
		
			<rect x="186.437" y="18.019" transform="matrix(-0.8747 0.4847 -0.4847 -0.8747 365.3261 -47.4728)" fill="#E0C5BA" width="4.725" height="10.939"/>
		
			<rect x="182.957" y="40.061" transform="matrix(-0.8745 0.485 -0.485 -0.8745 370.791 -6.6132)" fill="#A64942" width="6.588" height="9.199"/>
		
			<rect x="184.87" y="15.725" transform="matrix(-0.8746 0.4848 -0.4848 -0.8746 358.1341 -55.9389)" fill="#E0C5BA" width="2.861" height="5.223"/>
		
			<rect x="177.771" y="24.495" transform="matrix(-0.8744 0.4851 -0.4851 -0.8744 348.088 -35.882)" fill="#E0C5BA" width="1.834" height="5.22"/>
		
			<rect x="180.075" y="22.424" transform="matrix(-0.8744 0.4852 -0.4852 -0.8744 351.1974 -40.8362)" fill="#E0C5BA" width="1.618" height="5.221"/>
	</g>
	<g class="carrot">
		<polygon fill="#E78926" points="122.954,84.024 118.524,85.443 102.021,45.579 113.214,41.992 		"/>
		
			<rect x="105.105" y="39.632" transform="matrix(0.9523 -0.3052 0.3052 0.9523 -7.6548 34.5937)" fill="#7EA926" width="3.44" height="4.3"/>
		
			<rect x="101.053" y="20.13" transform="matrix(0.9523 -0.3052 0.3052 0.9523 -3.559 32.6858)" fill="#347F00" width="3.44" height="15.193"/>
		
			<rect x="98.317" y="25.886" transform="matrix(0.8171 -0.5765 0.5765 0.8171 -1.1684 64.4288)" fill="#3B9215" width="5.255" height="16.34"/>
		
			<rect x="105.415" y="23.611" transform="matrix(0.9854 0.1701 -0.1701 0.9854 6.983 -17.9201)" fill="#3B9215" width="5.257" height="16.34"/>
	</g>
	<g class="rabbit">
		<polygon fill="#CFDCEF" points="268.069,90.927 274.13,84.817 272.055,76.466 263.918,74.224 257.857,80.333 259.934,88.685 		"/>
		<polygon fill="#CFDCEF" points="236.844,8.201 231.759,25.915 239.234,29.683 250.872,13.629 248.127,0.714 		"/>
		<polygon fill="#E58779" points="239.181,10.349 235.02,25.473 237.25,27.468 247.609,13.555 246.496,4.474 		"/>
		<g>
			
				<rect x="246.017" y="70.152" transform="matrix(0.9981 0.061 -0.061 0.9981 5.5568 -15.0947)" fill="#CFDCEF" width="7.875" height="26.587"/>
			
				<rect x="243.054" y="92.773" transform="matrix(-0.9946 0.1033 -0.1033 -0.9946 505.5699 163.3528)" fill="#CFDCEF" width="10.999" height="4"/>
		</g>
		<g>
			
				<rect x="251.665" y="70.885" transform="matrix(0.9981 0.0611 -0.0611 0.9981 5.6244 -15.4688)" fill="#C4D0E8" width="7.875" height="26.587"/>
			
				<rect x="249.231" y="94.193" transform="matrix(-0.9946 0.1033 -0.1033 -0.9946 517.0392 165.6052)" fill="#C4D0E8" width="10" height="4.001"/>
		</g>
		<polygon fill="#C4D0E8" points="223.926,79.812 256.835,95.252 268.241,74.195 264.174,53.199 237.309,40.182 220.22,42.279 
			218.492,51.797 		"/>
		<polygon fill="#C4D0E8" points="217.454,44.08 237.59,46.446 240.296,29.254 232.348,23.376 219.809,25.714 210.959,30.739 		"/>
		<g>
			<polygon fill="#C4D0E8" points="230.313,8.083 226.189,26.046 233.856,29.406 244.613,12.749 241.178,0 			"/>
			<polygon fill="#E59179" points="232.762,10.103 229.421,25.429 231.756,27.3 241.354,12.851 239.751,3.842 			"/>
		</g>
		<polygon fill="#842A2C" points="211.467,31.871 212.335,32.487 213.043,29.915 211.95,30.117 		"/>
		<polygon fill="#842A2C" points="223.925,31.048 225.028,30.439 225.55,29.317 225.262,28.148 224.306,27.452 223.135,27.54 
			222.297,28.362 222.154,29.649 222.791,30.735 		"/>
	</g>
	<g class="hand">
		
			<rect x="218.677" y="49.152" transform="matrix(0.482 0.8762 -0.8762 0.482 170.0171 -162.7)" fill="#C4D0E8" width="7.875" height="26.586"/>
		
			<rect x="205.678" y="65.924" transform="matrix(-0.619 -0.7854 0.7854 -0.619 288.5501 275.8257)" fill="#C4D0E8" width="10.999" height="4"/>
	</g>
	<g class="bush">
		<polygon fill="#123444" points="109.759,64.034 82.738,101.041 36.959,102.989 6.893,68.411 15.181,23.345 55.581,1.727 
			97.673,19.834 		"/>
		<polygon fill="#123444" points="158.173,67.412 131.152,104.419 85.373,106.367 55.307,71.789 63.595,26.723 103.995,5.104 
			146.087,23.212 		"/>
		<polygon fill="#123444" points="186.466,61.963 164.955,91.426 128.508,92.976 104.571,65.448 111.17,29.569 143.334,12.357 
			176.846,26.774 		"/>
		<polygon fill="#236887" points="102.867,64.034 75.847,101.041 30.065,102.989 0,68.411 8.287,23.345 48.688,1.727 90.781,19.834 
					"/>
		<polygon fill="#236887" points="151.281,67.412 124.261,104.419 78.479,106.367 48.414,71.789 56.701,26.723 97.103,5.104 
			139.195,23.212 		"/>
		<polygon fill="#236887" points="180.979,61.963 159.469,91.426 123.021,92.976 99.085,65.448 105.682,29.569 137.847,12.357 
			171.357,26.774 		"/>
	</g>
</svg>
