<svg class="bush" version="1.1" xmlns="http://www.w3.org/2000/svg" xmlns:xlink="http://www.w3.org/1999/xlink" x="0px" y="0px"
	 width="165.614px" height="92.938px" viewBox="0 0 165.614 92.938" enable-background="new 0 0 165.614 92.938"
	 xml:space="preserve">
	<polygon fill="#324129" points="97.485,55.339 73.486,88.208 32.826,89.938 6.122,59.227 13.482,19.201 49.365,0 86.75,16.083 	"/>
	<polygon fill="#425736" points="91.363,55.339 67.365,88.208 26.704,89.938 0,59.227 7.361,19.201 43.244,0 80.629,16.083 	"/>
	<polygon fill="#324129" points="140.485,58.339 116.486,91.208 75.826,92.938 49.122,62.227 56.482,22.201 92.365,3 129.75,19.083 
			"/>
	<polygon fill="#425736" points="134.363,58.339 110.365,91.208 69.704,92.938 43,62.227 50.361,22.201 86.244,3 123.629,19.083 	
		"/>
	<polygon fill="#324129" points="165.614,53.5 146.508,79.667 114.137,81.045 92.877,56.595 98.738,24.729 127.305,9.443 
		157.068,22.247 	"/>
	<polygon fill="#425736" points="160.741,53.5 141.635,79.667 109.264,81.045 88.004,56.595 93.864,24.729 122.431,9.443 
		152.195,22.247 	"/>
</svg>
