<svg version="1.1" id="giraffe" xmlns="http://www.w3.org/2000/svg" xmlns:xlink="http://www.w3.org/1999/xlink" x="0px" y="0px"
	 width="435.458px" height="516.434px" viewBox="0 0 435.458 516.434" enable-background="new 0 0 435.458 516.434"
	 xml:space="preserve">
<g>
	
		<rect x="38.983" y="332.858" transform="matrix(-0.9255 -0.3787 0.3787 -0.9255 -57.2026 730.8467)" fill="#987359" width="8.567" height="76.381"/>
	<polygon fill="#654631" points="20.223,457.246 3,451.602 28.584,392.421 38.627,396.504 	"/>
</g>
<g>
	<polygon fill="#4E2E15" points="170.456,346.859 113.094,336.816 179.206,216.945 211.597,233.23 	"/>
	<polygon fill="#987359" points="174.827,349.643 117.465,339.6 183.577,219.726 215.968,236.012 	"/>
	<polygon fill="#70503B" points="171.115,269.455 166.717,294.736 189.978,279.755 	"/>
	<polygon fill="#70503B" points="176.705,312.997 148.3,329.383 171.115,336.406 	"/>
	<polygon fill="#70503B" points="143.872,291.719 156.416,299.887 132.136,312.997 	"/>
	<polygon fill="#70503B" points="173.75,237.192 175.457,252.867 165.156,252.867 	"/>
</g>
<g>
	<rect x="156.496" y="385.867" fill="#A37F65" width="19" height="120"/>
	<polygon fill="#654631" points="175.457,488.867 156.416,488.867 153.294,505.867 178.577,505.867 	"/>
	<rect x="128.496" y="380.867" fill="#8E6549" width="20" height="120"/>
	<polygon fill="#654631" points="148.3,483.867 129.26,483.867 126.138,500.867 151.422,500.867 	"/>
	<rect x="49.496" y="385.867" fill="#A37F65" width="18" height="120"/>
	<polygon fill="#654631" points="68.08,488.867 49.04,488.867 45.917,505.867 71.201,505.867 	"/>
	<rect x="75.496" y="380.867" fill="#8E6549" width="19" height="120"/>
	<polygon fill="#654631" points="94.612,483.867 75.571,483.867 72.45,500.867 97.733,500.867 	"/>
	<polygon fill="#987359" points="176.496,399.455 46.438,411.941 52.628,333.346 176.496,324.794 	"/>
	<polygon fill="#70503B" points="175.457,355.134 144.275,344.293 149.237,371.059 	"/>
	<polygon fill="#70503B" points="120.507,328.672 123.096,357.675 94.612,330.459 	"/>
	<polygon fill="#70503B" points="81.496,357.305 118.482,374.634 81.496,382.119 	"/>
	<polygon fill="#70503B" points="73.481,331.917 68.08,362.562 52.785,333.346 	"/>
	<polygon fill="#70503B" points="118.044,398.779 128.958,368.921 148.027,396.338 	"/>
	<polyline fill="#70503B" points="61.695,371.059 79.648,396.844 52.785,399.421 	"/>
</g>
<g>
	<rect x="128.496" y="111.423" fill="#86CC44" width="165.829" height="131.18"/>
	<polyline class="signal" fill="none" stroke="#71994B" stroke-width="8" stroke-miterlimit="10" points="148.027,129.133 274.249,136.566 
		156.416,176 263.213,198.332 148.496,221 	"/>
	<g>
		<g>
			<polygon fill="#4E2E15" points="206.115,242.999 160.753,237.957 193.865,178.084 226.256,194.37 			"/>
			<polygon fill="#987359" points="214.486,242.782 165.124,240.739 198.236,180.866 230.627,197.152 			"/>
			<polygon fill="#70503B" points="188.409,198.332 190.116,214.007 179.815,214.007 			"/>
		</g>
		<g>
			<rect x="199.214" y="139" fill="#885A39" width="6" height="32"/>
			<polygon fill="#4E2E15" points="199.243,144 195.399,140.435 194.528,135.323 197.038,130.892 201.753,129.133 206.468,130.828 
				208.978,135.164 208.106,140.44 204.261,144 			"/>
			<rect x="222.213" y="139" fill="#885A39" width="7" height="32"/>
			<polygon fill="#4E2E15" points="223.047,144 219.204,140.435 218.331,135.323 220.84,130.892 225.555,129.133 230.272,130.828 
				232.782,135.164 231.911,140.44 228.065,144 			"/>
			<polygon fill="#654631" points="197.591,168 164.214,168 164.214,149.013 			"/>
			<polygon fill="#654631" points="229.426,168 263.213,168 263.213,149.013 			"/>
			<polygon fill="#876653" points="230.68,210 196.63,210 185.833,158 241.476,158 			"/>
			<polygon fill="#4E2E15" points="226.778,221 200.532,221 195.532,193 231.778,193 			"/>
			<polygon points="197.212,183 194.257,180.691 193.587,176.978 195.517,173.681 199.14,172.383 202.765,173.712 204.694,177.058 
				204.022,180.688 201.069,183 			"/>
			<polygon points="226.241,183 223.286,180.691 222.616,176.978 224.545,173.681 228.168,172.383 231.793,173.712 233.721,177.058 
				233.051,180.688 230.096,183 			"/>
			<polygon points="205.937,207 207.81,213.086 210.151,207 			"/>
			<polygon points="217.175,207 219.045,213.086 221.387,207 			"/>
		</g>
	</g>
	<g class="foot">
		<polygon fill="#A37F65" points="269.106,246.514 250.135,245.475 252.698,189.654 271.668,190.693 	"/>
		<polygon fill="#654631" points="251.808,206.631 270.819,207.672 274.866,190.869 249.622,189.486 	"/>
	</g>
</g>
<g>
	
		<rect x="243.852" y="-2.804" transform="matrix(-0.7959 -0.6054 0.6054 -0.7959 407.966 256.4731)" fill="#3D3D3D" width="6.716" height="124.562"/>
	
		<rect x="174.23" y="-2.792" transform="matrix(0.7959 -0.6054 0.6054 0.7959 0.229 119.6564)" fill="#3D3D3D" width="6.716" height="124.562"/>
</g>
<g class="static">
	<rect x="126.043" y="113.182" fill="#FFFFFF" width="24" height="125.769"/>
	<rect x="150.043" y="113.182" fill="#FFFF48" width="24" height="125.769"/>
	<rect x="173.082" y="113.182" fill="#4AFFF6" width="24.961" height="125.769"/>
	<rect x="196.915" y="113.182" fill="#4DFF4D" width="25.128" height="125.769"/>
	<rect x="222.043" y="113.182" fill="#FF50FF" width="24" height="125.769"/>
	<rect x="246.043" y="113.182" fill="#FF526F" width="24" height="125.769"/>
	<rect x="270.043" y="113.182" fill="#3924FF" width="24" height="125.769"/>
</g>
<path fill="#3D3D3D" d="M118.91,102v148h185V102H118.91z M288.088,233.197H134.732V118.803h153.356V233.197L288.088,233.197z"/>
<g class="text">
	<polygon fill="#FFFFFF" points="427.124,166.457 325.458,166.457 306.792,183.84 313.792,166.457 313.792,133.173 427.124,133.173 
			"/>
	<g>
		<path d="M323.37,147.189h1.324v5.707h-1.324v-0.598c-0.543,0.508-1.127,0.762-1.752,0.762c-0.789,0-1.441-0.285-1.957-0.855
			c-0.512-0.582-0.768-1.309-0.768-2.18c0-0.855,0.256-1.568,0.768-2.139s1.152-0.855,1.922-0.855c0.664,0,1.26,0.273,1.787,0.82
			V147.189z M320.241,150.025c0,0.547,0.146,0.992,0.439,1.336c0.301,0.348,0.68,0.521,1.137,0.521c0.488,0,0.883-0.168,1.184-0.504
			c0.301-0.348,0.451-0.789,0.451-1.324s-0.15-0.977-0.451-1.324c-0.301-0.34-0.691-0.51-1.172-0.51
			c-0.453,0-0.832,0.172-1.137,0.516C320.391,149.084,320.241,149.514,320.241,150.025z"/>
		<path d="M327.676,143v9.896h-1.318V143H327.676z"/>
		<path d="M330.665,143v9.896h-1.318V143H330.665z"/>
		<path d="M337.397,148.42v4.477h-1.318v-4.477h-0.562v-1.23h0.562v-2.092h1.318v2.092h1.025v1.23H337.397z"/>
		<path d="M339.559,143h1.318v4.664c0.469-0.422,0.986-0.633,1.553-0.633c0.645,0,1.16,0.209,1.547,0.627
			c0.328,0.363,0.492,0.943,0.492,1.74v3.498h-1.318v-3.375c0-0.457-0.081-0.788-0.243-0.993s-0.423-0.308-0.782-0.308
			c-0.461,0-0.785,0.143-0.973,0.428c-0.184,0.289-0.275,0.785-0.275,1.488v2.76h-1.318V143z"/>
		<path d="M351.336,150.354h-4.09c0.035,0.469,0.188,0.842,0.457,1.119c0.27,0.273,0.615,0.41,1.037,0.41
			c0.328,0,0.6-0.078,0.814-0.234c0.211-0.156,0.451-0.445,0.721-0.867l1.113,0.621c-0.172,0.293-0.354,0.544-0.545,0.753
			s-0.396,0.381-0.615,0.516s-0.455,0.233-0.709,0.296s-0.529,0.094-0.826,0.094c-0.852,0-1.535-0.273-2.051-0.82
			c-0.516-0.551-0.773-1.281-0.773-2.191c0-0.902,0.25-1.633,0.75-2.191c0.504-0.551,1.172-0.826,2.004-0.826
			c0.84,0,1.504,0.268,1.992,0.803c0.484,0.531,0.727,1.268,0.727,2.209L351.336,150.354z M349.983,149.275
			c-0.184-0.703-0.627-1.055-1.33-1.055c-0.16,0-0.311,0.024-0.451,0.073s-0.269,0.119-0.384,0.211s-0.214,0.202-0.296,0.331
			s-0.145,0.275-0.188,0.439H349.983z"/>
		<path d="M359.797,148.162l-1.09,0.58c-0.172-0.348-0.385-0.521-0.639-0.521c-0.121,0-0.225,0.04-0.311,0.12
			s-0.129,0.182-0.129,0.307c0,0.218,0.254,0.435,0.762,0.649c0.699,0.301,1.17,0.578,1.412,0.831
			c0.242,0.254,0.363,0.595,0.363,1.024c0,0.55-0.203,1.01-0.609,1.381c-0.395,0.352-0.871,0.527-1.43,0.527
			c-0.957,0-1.635-0.467-2.033-1.4l1.125-0.521c0.156,0.273,0.275,0.447,0.357,0.521c0.16,0.148,0.352,0.223,0.574,0.223
			c0.445,0,0.668-0.203,0.668-0.609c0-0.234-0.172-0.453-0.516-0.656c-0.133-0.066-0.266-0.131-0.398-0.193
			s-0.268-0.127-0.404-0.193c-0.383-0.188-0.652-0.375-0.809-0.562c-0.199-0.238-0.299-0.545-0.299-0.92
			c0-0.496,0.17-0.906,0.51-1.23c0.348-0.324,0.77-0.486,1.266-0.486C358.899,147.031,359.442,147.408,359.797,148.162z"/>
		<path d="M361.151,144.816c0-0.23,0.084-0.43,0.252-0.598s0.369-0.252,0.604-0.252c0.238,0,0.441,0.084,0.609,0.252
			c0.168,0.164,0.252,0.365,0.252,0.604s-0.084,0.441-0.252,0.609c-0.164,0.168-0.365,0.252-0.604,0.252s-0.441-0.084-0.609-0.252
			S361.151,145.059,361.151,144.816z M362.668,147.189v5.707h-1.318v-5.707H362.668z"/>
		<path d="M364.338,147.189h1.324v0.527c0.461-0.457,0.98-0.686,1.559-0.686c0.664,0,1.182,0.209,1.553,0.627
			c0.32,0.355,0.48,0.936,0.48,1.74v3.498h-1.324v-3.184c0-0.562-0.078-0.95-0.234-1.165c-0.152-0.218-0.43-0.328-0.832-0.328
			c-0.438,0-0.748,0.145-0.932,0.433c-0.18,0.285-0.27,0.782-0.27,1.492v2.75h-1.324V147.189z"/>
		<path d="M376.438,152.762c0,0.27-0.009,0.507-0.026,0.712s-0.042,0.386-0.073,0.542c-0.094,0.43-0.277,0.799-0.551,1.107
			c-0.516,0.594-1.225,0.891-2.127,0.891c-0.762,0-1.389-0.206-1.881-0.618c-0.508-0.424-0.801-1.009-0.879-1.755h1.324
			c0.051,0.281,0.135,0.498,0.252,0.65c0.273,0.355,0.672,0.533,1.195,0.533c0.965,0,1.447-0.59,1.447-1.77v-0.797
			c-0.523,0.535-1.127,0.803-1.811,0.803c-0.777,0-1.414-0.281-1.91-0.844c-0.5-0.57-0.75-1.283-0.75-2.139
			c0-0.832,0.232-1.539,0.697-2.121c0.5-0.617,1.16-0.926,1.98-0.926c0.719,0,1.316,0.268,1.793,0.803v-0.645h1.318V152.762z
			 M375.172,150.058c0-0.554-0.148-0.997-0.445-1.328c-0.301-0.339-0.686-0.509-1.154-0.509c-0.5,0-0.895,0.186-1.184,0.556
			c-0.262,0.332-0.393,0.761-0.393,1.287c0,0.519,0.131,0.944,0.393,1.275c0.285,0.363,0.68,0.544,1.184,0.544
			s0.902-0.183,1.195-0.55C375.038,151.001,375.172,150.576,375.172,150.058z"/>
		<path d="M379.42,143v9.896h-1.318V143H379.42z"/>
		<path d="M386.288,150.354h-4.09c0.035,0.469,0.188,0.842,0.457,1.119c0.27,0.273,0.615,0.41,1.037,0.41
			c0.328,0,0.6-0.078,0.814-0.234c0.211-0.156,0.451-0.445,0.721-0.867l1.113,0.621c-0.172,0.293-0.354,0.544-0.545,0.753
			s-0.396,0.381-0.615,0.516s-0.455,0.233-0.709,0.296s-0.529,0.094-0.826,0.094c-0.852,0-1.535-0.273-2.051-0.82
			c-0.516-0.551-0.773-1.281-0.773-2.191c0-0.902,0.25-1.633,0.75-2.191c0.504-0.551,1.172-0.826,2.004-0.826
			c0.84,0,1.504,0.268,1.992,0.803c0.484,0.531,0.727,1.268,0.727,2.209L386.288,150.354z M384.934,149.275
			c-0.184-0.703-0.627-1.055-1.33-1.055c-0.16,0-0.311,0.024-0.451,0.073s-0.269,0.119-0.384,0.211s-0.214,0.202-0.296,0.331
			s-0.145,0.275-0.188,0.439H384.934z"/>
		<path d="M392.75,143v9.896h-1.318V143H392.75z"/>
		<path d="M398.627,147.189h1.324v5.707h-1.324v-0.598c-0.543,0.508-1.127,0.762-1.752,0.762c-0.789,0-1.441-0.285-1.957-0.855
			c-0.512-0.582-0.768-1.309-0.768-2.18c0-0.855,0.256-1.568,0.768-2.139s1.152-0.855,1.922-0.855c0.664,0,1.26,0.273,1.787,0.82
			V147.189z M395.499,150.025c0,0.547,0.146,0.992,0.439,1.336c0.301,0.348,0.68,0.521,1.137,0.521c0.488,0,0.883-0.168,1.184-0.504
			c0.301-0.348,0.451-0.789,0.451-1.324s-0.15-0.977-0.451-1.324c-0.301-0.34-0.691-0.51-1.172-0.51
			c-0.453,0-0.832,0.172-1.137,0.516C395.649,149.084,395.499,149.514,395.499,150.025z"/>
		<path d="M405.823,143h1.324v9.896h-1.324v-0.598c-0.52,0.508-1.107,0.762-1.764,0.762c-0.781,0-1.43-0.285-1.945-0.855
			c-0.512-0.582-0.768-1.309-0.768-2.18c0-0.852,0.256-1.562,0.768-2.133c0.508-0.574,1.146-0.861,1.916-0.861
			c0.668,0,1.266,0.273,1.793,0.82V143z M402.694,150.025c0,0.547,0.146,0.992,0.439,1.336c0.301,0.348,0.68,0.521,1.137,0.521
			c0.488,0,0.883-0.168,1.184-0.504c0.301-0.348,0.451-0.789,0.451-1.324s-0.15-0.977-0.451-1.324
			c-0.301-0.34-0.691-0.51-1.172-0.51c-0.453,0-0.832,0.172-1.137,0.516C402.844,149.084,402.694,149.514,402.694,150.025z"/>
		<path d="M408.612,144.816c0-0.23,0.084-0.43,0.252-0.598s0.369-0.252,0.604-0.252c0.238,0,0.441,0.084,0.609,0.252
			c0.168,0.164,0.252,0.365,0.252,0.604s-0.084,0.441-0.252,0.609c-0.164,0.168-0.365,0.252-0.604,0.252s-0.441-0.084-0.609-0.252
			S408.612,145.059,408.612,144.816z M410.129,147.189v5.707h-1.318v-5.707H410.129z"/>
		<path d="M416.997,150.354h-4.09c0.035,0.469,0.188,0.842,0.457,1.119c0.27,0.273,0.615,0.41,1.037,0.41
			c0.328,0,0.6-0.078,0.814-0.234c0.211-0.156,0.451-0.445,0.721-0.867l1.113,0.621c-0.172,0.293-0.354,0.544-0.545,0.753
			s-0.396,0.381-0.615,0.516s-0.455,0.233-0.709,0.296s-0.529,0.094-0.826,0.094c-0.852,0-1.535-0.273-2.051-0.82
			c-0.516-0.551-0.773-1.281-0.773-2.191c0-0.902,0.25-1.633,0.75-2.191c0.504-0.551,1.172-0.826,2.004-0.826
			c0.84,0,1.504,0.268,1.992,0.803c0.484,0.531,0.727,1.268,0.727,2.209L416.997,150.354z M415.643,149.275
			c-0.184-0.703-0.627-1.055-1.33-1.055c-0.16,0-0.311,0.024-0.451,0.073s-0.269,0.119-0.384,0.211s-0.214,0.202-0.296,0.331
			s-0.145,0.275-0.188,0.439H415.643z"/>
		<path d="M421.754,148.162l-1.09,0.58c-0.172-0.348-0.385-0.521-0.639-0.521c-0.121,0-0.225,0.04-0.311,0.12
			s-0.129,0.182-0.129,0.307c0,0.218,0.254,0.435,0.762,0.649c0.699,0.301,1.17,0.578,1.412,0.831
			c0.242,0.254,0.363,0.595,0.363,1.024c0,0.55-0.203,1.01-0.609,1.381c-0.395,0.352-0.871,0.527-1.43,0.527
			c-0.957,0-1.635-0.467-2.033-1.4l1.125-0.521c0.156,0.273,0.275,0.447,0.357,0.521c0.16,0.148,0.352,0.223,0.574,0.223
			c0.445,0,0.668-0.203,0.668-0.609c0-0.234-0.172-0.453-0.516-0.656c-0.133-0.066-0.266-0.131-0.398-0.193
			s-0.268-0.127-0.404-0.193c-0.383-0.188-0.652-0.375-0.809-0.562c-0.199-0.238-0.299-0.545-0.299-0.92
			c0-0.496,0.17-0.906,0.51-1.23c0.348-0.324,0.77-0.486,1.266-0.486C420.856,147.031,421.399,147.408,421.754,148.162z"/>
	</g>
</g>
</svg>
