<?xml version="1.0" encoding="utf-8"?>
<!-- Generator: Adobe Illustrator 16.0.0, SVG Export Plug-In . SVG Version: 6.00 Build 0)  -->
<!DOCTYPE svg PUBLIC "-//W3C//DTD SVG 1.1//EN" "http://www.w3.org/Graphics/SVG/1.1/DTD/svg11.dtd">
<svg version="1.1" id="igloo" xmlns="http://www.w3.org/2000/svg" xmlns:xlink="http://www.w3.org/1999/xlink" x="0px" y="0px"
	 width="487.128px" height="187.066px" viewBox="0 0 487.128 187.066" enable-background="new 0 0 487.128 187.066"
	 xml:space="preserve">
<polygon fill="#BAE0F5" points="249.526,187.066 0,187.066 1.895,103.01 44.658,29.122 124.929,0 205.147,29.285 247.78,103.225 "/>
<rect x="206.256" y="125.066" fill="#BAE0F5" width="70" height="62"/>
<rect x="268.256" y="130.066" fill="#DDEFFA" width="8" height="57"/>
<g class="textBox">
	<polygon fill="#FFFFFF" points="479.628,54.033 289.628,54.033 254.628,73.033 263.628,54.033 263.628,8 479.628,8 	"/>
	<g>
		<path d="M278.259,26.873l-2.566-4.646h1.529l1.746,3.281l1.629-3.281h1.488l-4.547,8.812h-1.506L278.259,26.873z"/>
		<path d="M286.983,22.226h1.324v5.707h-1.324v-0.598c-0.543,0.508-1.127,0.762-1.752,0.762c-0.789,0-1.441-0.285-1.957-0.855
			c-0.512-0.582-0.768-1.309-0.768-2.18c0-0.855,0.256-1.568,0.768-2.139s1.152-0.855,1.922-0.855c0.664,0,1.26,0.273,1.787,0.82
			V22.226z M283.854,25.062c0,0.547,0.146,0.992,0.439,1.336c0.301,0.348,0.68,0.521,1.137,0.521c0.488,0,0.883-0.168,1.184-0.504
			c0.301-0.348,0.451-0.789,0.451-1.324s-0.15-0.977-0.451-1.324c-0.301-0.34-0.691-0.51-1.172-0.51
			c-0.453,0-0.832,0.172-1.137,0.516C284.005,24.121,283.854,24.551,283.854,25.062z"/>
		<path d="M298.116,22.472v1.752c-0.301-0.367-0.57-0.619-0.809-0.756c-0.234-0.141-0.51-0.211-0.826-0.211
			c-0.496,0-0.908,0.174-1.236,0.521s-0.492,0.783-0.492,1.307c0,0.535,0.158,0.975,0.475,1.318c0.32,0.344,0.729,0.516,1.225,0.516
			c0.316,0,0.596-0.068,0.838-0.205c0.234-0.133,0.51-0.391,0.826-0.773v1.74c-0.535,0.277-1.07,0.416-1.605,0.416
			c-0.883,0-1.621-0.285-2.215-0.855c-0.594-0.574-0.891-1.287-0.891-2.139s0.301-1.57,0.902-2.156s1.34-0.879,2.215-0.879
			C297.085,22.068,297.616,22.203,298.116,22.472z"/>
		<path d="M303.601,22.226h1.324v5.707h-1.324v-0.598c-0.543,0.508-1.127,0.762-1.752,0.762c-0.789,0-1.441-0.285-1.957-0.855
			c-0.512-0.582-0.768-1.309-0.768-2.18c0-0.855,0.256-1.568,0.768-2.139s1.152-0.855,1.922-0.855c0.664,0,1.26,0.273,1.787,0.82
			V22.226z M300.472,25.062c0,0.547,0.146,0.992,0.439,1.336c0.301,0.348,0.68,0.521,1.137,0.521c0.488,0,0.883-0.168,1.184-0.504
			c0.301-0.348,0.451-0.789,0.451-1.324s-0.15-0.977-0.451-1.324c-0.301-0.34-0.691-0.51-1.172-0.51
			c-0.453,0-0.832,0.172-1.137,0.516C300.622,24.121,300.472,24.551,300.472,25.062z"/>
		<path d="M307.907,18.037v9.896h-1.318v-9.896H307.907z"/>
		<path d="M310.896,18.037v9.896h-1.318v-9.896H310.896z"/>
		<path d="M316.772,22.226h1.324v5.707h-1.324v-0.598c-0.543,0.508-1.127,0.762-1.752,0.762c-0.789,0-1.441-0.285-1.957-0.855
			c-0.512-0.582-0.768-1.309-0.768-2.18c0-0.855,0.256-1.568,0.768-2.139s1.152-0.855,1.922-0.855c0.664,0,1.26,0.273,1.787,0.82
			V22.226z M313.644,25.062c0,0.547,0.146,0.992,0.439,1.336c0.301,0.348,0.68,0.521,1.137,0.521c0.488,0,0.883-0.168,1.184-0.504
			c0.301-0.348,0.451-0.789,0.451-1.324s-0.15-0.977-0.451-1.324c-0.301-0.34-0.691-0.51-1.172-0.51
			c-0.453,0-0.832,0.172-1.137,0.516C313.794,24.121,313.644,24.551,313.644,25.062z"/>
		<path d="M320.575,26.24l1.172,0.457l-1.67,3.346l-0.891-0.369L320.575,26.24z"/>
		<path d="M331.374,31.039v-3.744c-0.523,0.535-1.121,0.803-1.793,0.803c-0.77,0-1.408-0.283-1.916-0.85
			c-0.512-0.57-0.768-1.283-0.768-2.139c0-0.867,0.256-1.592,0.768-2.174c0.516-0.578,1.162-0.867,1.939-0.867
			c0.66,0,1.25,0.26,1.77,0.779v-0.621h1.324v8.812H331.374z M328.245,25.051c0,0.551,0.148,0.998,0.445,1.342
			c0.297,0.352,0.674,0.527,1.131,0.527c0.484,0,0.877-0.168,1.178-0.504c0.305-0.34,0.457-0.781,0.457-1.324
			c0-0.535-0.15-0.977-0.451-1.324c-0.301-0.34-0.691-0.51-1.172-0.51c-0.453,0-0.832,0.172-1.137,0.516
			C328.396,24.121,328.245,24.547,328.245,25.051z"/>
		<path d="M335.815,22.226v3.275c0,0.945,0.373,1.418,1.119,1.418s1.119-0.473,1.119-1.418v-3.275h1.318v3.305
			c0,0.457-0.057,0.852-0.17,1.184c-0.109,0.297-0.299,0.564-0.568,0.803c-0.445,0.387-1.012,0.58-1.699,0.58
			c-0.684,0-1.248-0.193-1.693-0.58c-0.273-0.238-0.467-0.506-0.58-0.803c-0.109-0.266-0.164-0.66-0.164-1.184v-3.305H335.815z"/>
		<path d="M346.233,25.39h-4.09c0.035,0.469,0.188,0.842,0.457,1.119c0.27,0.273,0.615,0.41,1.037,0.41
			c0.328,0,0.6-0.078,0.814-0.234c0.211-0.156,0.451-0.445,0.721-0.867l1.113,0.621c-0.172,0.293-0.354,0.544-0.545,0.753
			s-0.396,0.381-0.615,0.516s-0.455,0.233-0.709,0.296s-0.529,0.094-0.826,0.094c-0.852,0-1.535-0.273-2.051-0.82
			c-0.516-0.551-0.773-1.281-0.773-2.191c0-0.902,0.25-1.633,0.75-2.191c0.504-0.551,1.172-0.826,2.004-0.826
			c0.84,0,1.504,0.268,1.992,0.803c0.484,0.531,0.727,1.268,0.727,2.209L346.233,25.39z M344.88,24.312
			c-0.184-0.703-0.627-1.055-1.33-1.055c-0.16,0-0.311,0.024-0.451,0.073s-0.269,0.119-0.384,0.211s-0.214,0.202-0.296,0.331
			s-0.145,0.275-0.188,0.439H344.88z"/>
		<path d="M356.575,25.39h-4.09c0.035,0.469,0.188,0.842,0.457,1.119c0.27,0.273,0.615,0.41,1.037,0.41
			c0.328,0,0.6-0.078,0.814-0.234c0.211-0.156,0.451-0.445,0.721-0.867l1.113,0.621c-0.172,0.293-0.354,0.544-0.545,0.753
			s-0.396,0.381-0.615,0.516s-0.455,0.233-0.709,0.296s-0.529,0.094-0.826,0.094c-0.852,0-1.535-0.273-2.051-0.82
			c-0.516-0.551-0.773-1.281-0.773-2.191c0-0.902,0.25-1.633,0.75-2.191c0.504-0.551,1.172-0.826,2.004-0.826
			c0.84,0,1.504,0.268,1.992,0.803c0.484,0.531,0.727,1.268,0.727,2.209L356.575,25.39z M355.222,24.312
			c-0.184-0.703-0.627-1.055-1.33-1.055c-0.16,0-0.311,0.024-0.451,0.073s-0.269,0.119-0.384,0.211s-0.214,0.202-0.296,0.331
			s-0.145,0.275-0.188,0.439H355.222z"/>
		<path d="M358.017,22.226h1.318v0.527c0.254-0.266,0.471-0.445,0.65-0.539c0.191-0.098,0.432-0.146,0.721-0.146
			c0.645,0,1.154,0.281,1.529,0.844c0.414-0.562,0.975-0.844,1.682-0.844c1.285,0,1.928,0.779,1.928,2.338v3.527h-1.324v-3.17
			c0-0.547-0.066-0.934-0.199-1.16c-0.137-0.23-0.361-0.346-0.674-0.346c-0.363,0-0.628,0.137-0.794,0.41s-0.249,0.713-0.249,1.318
			v2.947h-1.324v-3.152c0-1.016-0.293-1.523-0.879-1.523c-0.371,0-0.642,0.139-0.812,0.416s-0.255,0.715-0.255,1.312v2.947h-1.318
			V22.226z"/>
		<path d="M368.974,31.039h-1.318v-8.812h1.318v0.621c0.52-0.52,1.109-0.779,1.77-0.779c0.785,0,1.432,0.289,1.939,0.867
			c0.516,0.574,0.773,1.299,0.773,2.174c0,0.855-0.256,1.568-0.768,2.139c-0.508,0.566-1.148,0.85-1.922,0.85
			c-0.668,0-1.266-0.268-1.793-0.803V31.039z M372.108,25.115c0-0.547-0.148-0.992-0.445-1.336c-0.301-0.348-0.68-0.521-1.137-0.521
			c-0.484,0-0.877,0.168-1.178,0.504s-0.451,0.777-0.451,1.324c0,0.535,0.15,0.977,0.451,1.324c0.297,0.34,0.688,0.51,1.172,0.51
			c0.457,0,0.834-0.172,1.131-0.516C371.956,26.06,372.108,25.631,372.108,25.115z"/>
		<path d="M380.048,25.39h-4.09c0.035,0.469,0.188,0.842,0.457,1.119c0.27,0.273,0.615,0.41,1.037,0.41
			c0.328,0,0.6-0.078,0.814-0.234c0.211-0.156,0.451-0.445,0.721-0.867l1.113,0.621c-0.172,0.293-0.354,0.544-0.545,0.753
			s-0.396,0.381-0.615,0.516s-0.455,0.233-0.709,0.296s-0.529,0.094-0.826,0.094c-0.852,0-1.535-0.273-2.051-0.82
			c-0.516-0.551-0.773-1.281-0.773-2.191c0-0.902,0.25-1.633,0.75-2.191c0.504-0.551,1.172-0.826,2.004-0.826
			c0.84,0,1.504,0.268,1.992,0.803c0.484,0.531,0.727,1.268,0.727,2.209L380.048,25.39z M378.694,24.312
			c-0.184-0.703-0.627-1.055-1.33-1.055c-0.16,0-0.311,0.024-0.451,0.073s-0.269,0.119-0.384,0.211s-0.214,0.202-0.296,0.331
			s-0.145,0.275-0.188,0.439H378.694z"/>
		<path d="M383.382,26.691h3.393v1.242h-6.006l3.697-4.477h-2.912v-1.23h5.52L383.382,26.691z"/>
		<path d="M387.741,25.039c0-0.824,0.295-1.525,0.885-2.104s1.309-0.867,2.156-0.867c0.852,0,1.574,0.291,2.168,0.873
			c0.586,0.582,0.879,1.297,0.879,2.145c0,0.855-0.295,1.572-0.885,2.15c-0.594,0.574-1.322,0.861-2.186,0.861
			c-0.855,0-1.572-0.293-2.15-0.879C388.03,26.64,387.741,25.914,387.741,25.039z M389.089,25.062c0,0.57,0.152,1.021,0.457,1.354
			c0.312,0.336,0.725,0.504,1.236,0.504c0.516,0,0.928-0.166,1.236-0.498s0.463-0.775,0.463-1.33s-0.154-0.998-0.463-1.33
			c-0.312-0.336-0.725-0.504-1.236-0.504c-0.504,0-0.912,0.168-1.225,0.504S389.089,24.531,389.089,25.062z M392.763,19.414
			l-2.133,1.934l-0.721-0.445l1.611-2.133L392.763,19.414z"/>
		<path d="M400.245,18.037v9.896h-1.318v-9.896H400.245z"/>
		<path d="M406.122,22.226h1.324v5.707h-1.324v-0.598c-0.543,0.508-1.127,0.762-1.752,0.762c-0.789,0-1.441-0.285-1.957-0.855
			c-0.512-0.582-0.768-1.309-0.768-2.18c0-0.855,0.256-1.568,0.768-2.139s1.152-0.855,1.922-0.855c0.664,0,1.26,0.273,1.787,0.82
			V22.226z M402.993,25.062c0,0.547,0.146,0.992,0.439,1.336c0.301,0.348,0.68,0.521,1.137,0.521c0.488,0,0.883-0.168,1.184-0.504
			c0.301-0.348,0.451-0.789,0.451-1.324s-0.15-0.977-0.451-1.324c-0.301-0.34-0.691-0.51-1.172-0.51
			c-0.453,0-0.832,0.172-1.137,0.516C403.144,24.121,402.993,24.551,402.993,25.062z"/>
		<path d="M412.813,22.226h1.318v0.51c0.242-0.254,0.457-0.428,0.645-0.521c0.191-0.098,0.418-0.146,0.68-0.146
			c0.348,0,0.711,0.113,1.09,0.34l-0.604,1.207c-0.25-0.18-0.494-0.27-0.732-0.27c-0.719,0-1.078,0.543-1.078,1.629v2.959h-1.318
			V22.226z"/>
		<path d="M416.927,25.039c0-0.824,0.295-1.525,0.885-2.104s1.309-0.867,2.156-0.867c0.852,0,1.574,0.291,2.168,0.873
			c0.586,0.582,0.879,1.297,0.879,2.145c0,0.855-0.295,1.572-0.885,2.15c-0.594,0.574-1.322,0.861-2.186,0.861
			c-0.855,0-1.572-0.293-2.15-0.879C417.216,26.64,416.927,25.914,416.927,25.039z M418.274,25.062c0,0.57,0.152,1.021,0.457,1.354
			c0.312,0.336,0.725,0.504,1.236,0.504c0.516,0,0.928-0.166,1.236-0.498s0.463-0.775,0.463-1.33s-0.154-0.998-0.463-1.33
			c-0.312-0.336-0.725-0.504-1.236-0.504c-0.504,0-0.912,0.168-1.225,0.504S418.274,24.531,418.274,25.062z"/>
		<path d="M427.726,23.199l-1.09,0.58c-0.172-0.348-0.385-0.521-0.639-0.521c-0.121,0-0.225,0.04-0.311,0.12
			s-0.129,0.183-0.129,0.307c0,0.219,0.254,0.436,0.762,0.65c0.699,0.3,1.17,0.577,1.412,0.831c0.242,0.253,0.363,0.595,0.363,1.023
			c0,0.551-0.203,1.011-0.609,1.382c-0.395,0.351-0.871,0.526-1.43,0.526c-0.957,0-1.635-0.467-2.033-1.4l1.125-0.521
			c0.156,0.273,0.275,0.447,0.357,0.521c0.16,0.148,0.352,0.223,0.574,0.223c0.445,0,0.668-0.203,0.668-0.609
			c0-0.234-0.172-0.453-0.516-0.656c-0.133-0.066-0.266-0.131-0.398-0.193s-0.268-0.127-0.404-0.193
			c-0.383-0.188-0.652-0.375-0.809-0.562c-0.199-0.238-0.299-0.545-0.299-0.92c0-0.496,0.17-0.906,0.51-1.23
			c0.348-0.324,0.77-0.486,1.266-0.486C426.827,22.068,427.37,22.445,427.726,23.199z"/>
		<path d="M433.485,22.226h1.324v5.707h-1.324v-0.598c-0.543,0.508-1.127,0.762-1.752,0.762c-0.789,0-1.441-0.285-1.957-0.855
			c-0.512-0.582-0.768-1.309-0.768-2.18c0-0.855,0.256-1.568,0.768-2.139s1.152-0.855,1.922-0.855c0.664,0,1.26,0.273,1.787,0.82
			V22.226z M430.356,25.062c0,0.547,0.146,0.992,0.439,1.336c0.301,0.348,0.68,0.521,1.137,0.521c0.488,0,0.883-0.168,1.184-0.504
			c0.301-0.348,0.451-0.789,0.451-1.324s-0.15-0.977-0.451-1.324c-0.301-0.34-0.691-0.51-1.172-0.51
			c-0.453,0-0.832,0.172-1.137,0.516C430.507,24.121,430.356,24.551,430.356,25.062z"/>
		<path d="M444.384,18.037h1.324v9.896h-1.324v-0.598c-0.52,0.508-1.107,0.762-1.764,0.762c-0.781,0-1.43-0.285-1.945-0.855
			c-0.512-0.582-0.768-1.309-0.768-2.18c0-0.852,0.256-1.562,0.768-2.133c0.508-0.574,1.146-0.861,1.916-0.861
			c0.668,0,1.266,0.273,1.793,0.82V18.037z M441.255,25.062c0,0.547,0.146,0.992,0.439,1.336c0.301,0.348,0.68,0.521,1.137,0.521
			c0.488,0,0.883-0.168,1.184-0.504c0.301-0.348,0.451-0.789,0.451-1.324s-0.15-0.977-0.451-1.324
			c-0.301-0.34-0.691-0.51-1.172-0.51c-0.453,0-0.832,0.172-1.137,0.516C441.405,24.121,441.255,24.551,441.255,25.062z"/>
		<path d="M452.569,25.39h-4.09c0.035,0.469,0.188,0.842,0.457,1.119c0.27,0.273,0.615,0.41,1.037,0.41
			c0.328,0,0.6-0.078,0.814-0.234c0.211-0.156,0.451-0.445,0.721-0.867l1.113,0.621c-0.172,0.293-0.354,0.544-0.545,0.753
			s-0.396,0.381-0.615,0.516s-0.455,0.233-0.709,0.296s-0.529,0.094-0.826,0.094c-0.852,0-1.535-0.273-2.051-0.82
			c-0.516-0.551-0.773-1.281-0.773-2.191c0-0.902,0.25-1.633,0.75-2.191c0.504-0.551,1.172-0.826,2.004-0.826
			c0.84,0,1.504,0.268,1.992,0.803c0.484,0.531,0.727,1.268,0.727,2.209L452.569,25.39z M451.216,24.312
			c-0.184-0.703-0.627-1.055-1.33-1.055c-0.16,0-0.311,0.024-0.451,0.073s-0.269,0.119-0.384,0.211s-0.214,0.202-0.296,0.331
			s-0.145,0.275-0.188,0.439H451.216z"/>
		<path d="M281.979,42.198c0,0.27-0.009,0.507-0.026,0.712s-0.042,0.386-0.073,0.542c-0.094,0.43-0.277,0.799-0.551,1.107
			c-0.516,0.594-1.225,0.891-2.127,0.891c-0.762,0-1.389-0.206-1.881-0.618c-0.508-0.424-0.801-1.009-0.879-1.755h1.324
			c0.051,0.281,0.135,0.498,0.252,0.65c0.273,0.355,0.672,0.533,1.195,0.533c0.965,0,1.447-0.59,1.447-1.77v-0.797
			c-0.523,0.535-1.127,0.803-1.811,0.803c-0.777,0-1.414-0.281-1.91-0.844c-0.5-0.57-0.75-1.283-0.75-2.139
			c0-0.832,0.232-1.539,0.697-2.121c0.5-0.617,1.16-0.926,1.98-0.926c0.719,0,1.316,0.268,1.793,0.803v-0.645h1.318V42.198z
			 M280.714,39.494c0-0.554-0.148-0.996-0.445-1.328c-0.301-0.339-0.686-0.509-1.154-0.509c-0.5,0-0.895,0.186-1.184,0.556
			c-0.262,0.332-0.393,0.761-0.393,1.287c0,0.519,0.131,0.943,0.393,1.275c0.285,0.362,0.68,0.544,1.184,0.544
			s0.902-0.184,1.195-0.55C280.579,40.437,280.714,40.012,280.714,39.494z"/>
		<path d="M284.962,36.626v3.275c0,0.945,0.373,1.418,1.119,1.418s1.119-0.473,1.119-1.418v-3.275h1.318v3.305
			c0,0.457-0.057,0.852-0.17,1.184c-0.109,0.297-0.299,0.564-0.568,0.803c-0.445,0.387-1.012,0.58-1.699,0.58
			c-0.684,0-1.248-0.193-1.693-0.58c-0.273-0.238-0.467-0.506-0.58-0.803c-0.109-0.266-0.164-0.66-0.164-1.184v-3.305H284.962z"/>
		<path d="M294.39,36.626h1.324v5.707h-1.324v-0.598c-0.543,0.508-1.127,0.762-1.752,0.762c-0.789,0-1.441-0.285-1.957-0.855
			c-0.512-0.582-0.768-1.309-0.768-2.18c0-0.855,0.256-1.568,0.768-2.139s1.152-0.855,1.922-0.855c0.664,0,1.26,0.273,1.787,0.82
			V36.626z M291.261,39.462c0,0.547,0.146,0.992,0.439,1.336c0.301,0.348,0.68,0.521,1.137,0.521c0.488,0,0.883-0.168,1.184-0.504
			c0.301-0.348,0.451-0.789,0.451-1.324s-0.15-0.977-0.451-1.324c-0.301-0.34-0.691-0.51-1.172-0.51
			c-0.453,0-0.832,0.172-1.137,0.516C291.411,38.52,291.261,38.95,291.261,39.462z"/>
		<path d="M301.585,32.436h1.324v9.896h-1.324v-0.598c-0.52,0.508-1.107,0.762-1.764,0.762c-0.781,0-1.43-0.285-1.945-0.855
			c-0.512-0.582-0.768-1.309-0.768-2.18c0-0.852,0.256-1.562,0.768-2.133c0.508-0.574,1.146-0.861,1.916-0.861
			c0.668,0,1.266,0.273,1.793,0.82V32.436z M298.456,39.462c0,0.547,0.146,0.992,0.439,1.336c0.301,0.348,0.68,0.521,1.137,0.521
			c0.488,0,0.883-0.168,1.184-0.504c0.301-0.348,0.451-0.789,0.451-1.324s-0.15-0.977-0.451-1.324
			c-0.301-0.34-0.691-0.51-1.172-0.51c-0.453,0-0.832,0.172-1.137,0.516C298.606,38.52,298.456,38.95,298.456,39.462z"/>
		<path d="M308.78,36.626h1.324v5.707h-1.324v-0.598c-0.543,0.508-1.127,0.762-1.752,0.762c-0.789,0-1.441-0.285-1.957-0.855
			c-0.512-0.582-0.768-1.309-0.768-2.18c0-0.855,0.256-1.568,0.768-2.139s1.152-0.855,1.922-0.855c0.664,0,1.26,0.273,1.787,0.82
			V36.626z M305.651,39.462c0,0.547,0.146,0.992,0.439,1.336c0.301,0.348,0.68,0.521,1.137,0.521c0.488,0,0.883-0.168,1.184-0.504
			c0.301-0.348,0.451-0.789,0.451-1.324s-0.15-0.977-0.451-1.324c-0.301-0.34-0.691-0.51-1.172-0.51
			c-0.453,0-0.832,0.172-1.137,0.516C305.802,38.52,305.651,38.95,305.651,39.462z"/>
		<path d="M313.087,32.436v9.896h-1.318v-9.896H313.087z"/>
		<path d="M316.075,36.626v3.275c0,0.945,0.373,1.418,1.119,1.418s1.119-0.473,1.119-1.418v-3.275h1.318v3.305
			c0,0.457-0.057,0.852-0.17,1.184c-0.109,0.297-0.299,0.564-0.568,0.803c-0.445,0.387-1.012,0.58-1.699,0.58
			c-0.684,0-1.248-0.193-1.693-0.58c-0.273-0.238-0.467-0.506-0.58-0.803c-0.109-0.266-0.164-0.66-0.164-1.184v-3.305H316.075z"/>
		<path d="M322.614,45.438h-1.318v-8.812h1.318v0.621c0.52-0.52,1.109-0.779,1.77-0.779c0.785,0,1.432,0.289,1.939,0.867
			c0.516,0.574,0.773,1.299,0.773,2.174c0,0.855-0.256,1.568-0.768,2.139c-0.508,0.566-1.148,0.85-1.922,0.85
			c-0.668,0-1.266-0.268-1.793-0.803V45.438z M325.749,39.514c0-0.547-0.148-0.992-0.445-1.336c-0.301-0.348-0.68-0.521-1.137-0.521
			c-0.484,0-0.877,0.168-1.178,0.504s-0.451,0.777-0.451,1.324c0,0.535,0.15,0.977,0.451,1.324c0.297,0.34,0.688,0.51,1.172,0.51
			c0.457,0,0.834-0.172,1.131-0.516C325.597,40.46,325.749,40.03,325.749,39.514z"/>
		<path d="M333.688,39.79h-4.09c0.035,0.469,0.188,0.842,0.457,1.119c0.27,0.273,0.615,0.41,1.037,0.41
			c0.328,0,0.6-0.078,0.814-0.234c0.211-0.156,0.451-0.445,0.721-0.867l1.113,0.621c-0.172,0.293-0.354,0.544-0.545,0.753
			s-0.396,0.381-0.615,0.516s-0.455,0.233-0.709,0.296s-0.529,0.094-0.826,0.094c-0.852,0-1.535-0.273-2.051-0.82
			c-0.516-0.551-0.773-1.281-0.773-2.191c0-0.902,0.25-1.633,0.75-2.191c0.504-0.551,1.172-0.826,2.004-0.826
			c0.84,0,1.504,0.268,1.992,0.803c0.484,0.531,0.727,1.268,0.727,2.209L333.688,39.79z M332.335,38.712
			c-0.184-0.703-0.627-1.055-1.33-1.055c-0.16,0-0.311,0.024-0.451,0.073s-0.269,0.119-0.384,0.211s-0.214,0.202-0.296,0.331
			s-0.145,0.275-0.188,0.439H332.335z"/>
	</g>
</g>
</svg>
