<svg class="lion" version="1.1" xmlns="http://www.w3.org/2000/svg" xmlns:xlink="http://www.w3.org/1999/xlink" x="0px" y="0px"
	 width="230.133px" height="178.117px" viewBox="0 0 230.133 178.117" enable-background="new 0 0 230.133 178.117"
	 xml:space="preserve">
	<g class="tail">
		
			<rect x="195.223" y="86.109" transform="matrix(-0.9256 0.3785 -0.3785 -0.9256 430.2925 158.3053)" fill="#E6AA73" width="8.725" height="70.677"/>
		<polygon fill="#B24012" points="212.587,178.117 230.133,172.376 213.063,139.622 202.726,143.454 		"/>
	</g>
	<g class="body">
		<g>
			<rect x="144.666" y="135.687" fill="#D69879" width="20" height="37"/>
			<polygon fill="#D69879" points="138.666,172.687 164.666,172.687 164.666,161.33 138.666,165.378 			"/>
		</g>
		<g>
			<rect x="94.666" y="135.687" fill="#D69879" width="20" height="37"/>
			<polygon fill="#D69879" points="88.666,172.687 114.666,172.687 114.666,161.33 88.666,165.378 			"/>
		</g>
		<polygon fill="#E6AA73" points="64.666,141.526 197.427,154.244 190.979,86.329 64.666,77.619 		"/>
		<g>
			<rect x="174.666" y="140.687" fill="#E6AA73" width="20" height="37"/>
			<polygon fill="#E6AA73" points="167.666,177.687 194.666,177.687 194.666,165.378 167.666,169.425 			"/>
		</g>
		<g>
			<rect x="67.666" y="140.687" fill="#E6AA73" width="19" height="37"/>
			<polygon fill="#E6AA73" points="60.666,177.687 86.666,177.687 86.666,165.378 60.666,169.425 			"/>
		</g>
	</g>
	<g class="head">
		<polygon fill="#74300E" points="23.778,113.48 64.379,124.873 102.805,107.503 121.075,69.498 110.642,28.64 76.386,4.047 
			34.337,7.228 4.17,36.692 0,78.654 		"/>
		<polygon fill="#B24012" points="29.04,109.432 69.641,120.826 108.066,103.456 126.337,65.451 115.903,24.592 81.647,0 39.6,3.18 
			9.432,32.645 5.262,74.607 		"/>
		<polygon fill="#E6AA73" points="47.243,89.687 81.927,89.687 92.924,36.687 36.246,36.687 		"/>
		<polygon fill="#AE8764" points="48.783,97.687 80.386,97.687 86.406,75.687 42.764,75.687 		"/>
		<polygon points="60.109,91.687 69.061,91.687 72.442,80.687 56.728,80.687 		"/>
		<polygon points="81.333,61.687 84.343,59.431 85.025,55.696 83.061,52.361 79.369,51.051 75.678,52.411 73.714,55.822 
			74.396,59.426 77.405,61.687 		"/>
		<polygon points="51.765,61.687 54.774,59.431 55.456,55.696 53.492,52.361 49.801,51.051 46.108,52.411 44.145,55.822 
			44.827,59.426 47.836,61.687 		"/>
		<rect x="55.666" y="89.687" width="19" height="3"/>
		<g>
			<polygon fill="#E6AA73" points="112.144,33.687 109.31,45.02 98.787,33.687 			"/>
			<polygon fill="#E6AA73" points="17.026,33.687 19.86,45.02 30.383,33.687 			"/>
		</g>
	</g>
</svg>
