<svg version="1.1" id="ship" xmlns="http://www.w3.org/2000/svg" xmlns:xlink="http://www.w3.org/1999/xlink" x="0px" y="0px"
	 width="450px" height="338.471px" viewBox="0 0 450 338.471" enable-background="new 0 0 450 338.471"
	 xml:space="preserve">
<g class="body">
	<rect x="95.174" y="203.747" transform="matrix(-1 -0.0024 0.0024 -1 211.7865 459.7536)" fill="#D68F30" width="22" height="52"/>
	<rect x="147.154" y="203.888" transform="matrix(-1 -0.0025 0.0025 -1 316.7313 460.1731)" fill="#D68F30" width="23" height="52"/>
	<rect x="200.153" y="204.02" transform="matrix(-1 -0.0025 0.0025 -1 422.7292 460.5695)" fill="#D68F30" width="23" height="52"/>
	<rect x="253.174" y="204.13" transform="matrix(-1 -0.0024 0.0024 -1 528.7997 460.8884)" fill="#D68F30" width="23" height="52"/>
	<rect x="95.248" y="182.755" transform="matrix(-1 -0.0025 0.0025 -1 212.0144 386.7733)" fill="#010101" width="21.999" height="21"/>
	<rect x="147.247" y="182.886" transform="matrix(-1 -0.0025 0.0025 -1 317.0092 387.1695)" fill="#010101" width="23" height="21"/>
	<rect x="200.245" y="183.02" transform="matrix(-1 -0.0025 0.0025 -1 423.014 387.5599)" fill="#010101" width="23.001" height="21"/>
	<rect x="253.262" y="183.13" transform="matrix(-1 -0.0024 0.0024 -1 529.0551 387.9009)" fill="#010101" width="23.001" height="21"/>
	<rect x="14.902" y="323.008" transform="matrix(-1 -0.0025 0.0025 -1 412.9783 661.5328)" fill="#821919" width="384.002" height="15"/>
	<polygon fill="#010101" points="399.371,323.472 15.094,322.527 0,296.49 414.595,297.509 "/>
	<rect x="0.003" y="284.01" transform="matrix(-1 -0.0025 0.0025 -1 414.2792 581.5372)" fill="#CECECE" width="415" height="13"/>
	<polygon fill="#CECECE" points="53.12,243.624 307.12,244.389 307.021,292.552 53.02,291.787 "/>
	<g>
		<path d="M85.371,259.733l-0.032,12.996l-2.285-0.006l0.032-12.996l-3.481-0.009l0.005-2.147l9.238,0.022l-0.005,2.148
			L85.371,259.733z"/>
		<path d="M93.173,257.606l-0.037,15.143l-2.285-0.006l0.037-15.143L93.173,257.606z"/>
		<path d="M105.369,259.882l-1.857,1.094c-0.345-0.602-0.674-0.994-0.987-1.179c-0.327-0.21-0.748-0.315-1.264-0.317
			c-0.634-0.002-1.161,0.178-1.581,0.537c-0.419,0.352-0.63,0.797-0.631,1.332c-0.001,0.739,0.546,1.336,1.645,1.791l1.509,0.621
			c1.228,0.5,2.126,1.109,2.693,1.827c0.566,0.718,0.849,1.597,0.847,2.638c-0.003,1.394-0.471,2.543-1.401,3.45
			c-0.937,0.914-2.099,1.369-3.485,1.365c-1.314-0.003-2.399-0.397-3.253-1.181c-0.841-0.782-1.365-1.881-1.571-3.293l2.315-0.504
			c0.103,0.89,0.284,1.504,0.544,1.845c0.469,0.655,1.155,0.983,2.057,0.985c0.713,0.002,1.306-0.234,1.777-0.711
			c0.472-0.476,0.708-1.08,0.71-1.812c0.001-0.294-0.04-0.563-0.121-0.81c-0.082-0.244-0.208-0.471-0.381-0.677
			c-0.173-0.206-0.396-0.399-0.67-0.579c-0.273-0.181-0.601-0.354-0.979-0.518l-1.46-0.611c-2.07-0.881-3.104-2.164-3.1-3.849
			c0.003-1.138,0.44-2.086,1.312-2.849c0.871-0.77,1.955-1.152,3.249-1.149C103.031,257.336,104.392,258.187,105.369,259.882z"/>
		<path d="M112.979,259.802l-0.032,12.995l-2.285-0.006l0.032-12.995l-3.481-0.009l0.005-2.147l9.239,0.022l-0.005,2.147
			L112.979,259.802z"/>
		<path d="M126.539,269.153l-6.482-0.016l-1.695,3.674l-2.461-0.006l7.532-16.076l7.188,16.111l-2.501-0.006L126.539,269.153z
			 M125.613,267.003l-2.233-5.154l-2.367,5.143L125.613,267.003z"/>
		<path d="M132.513,272.845l0.04-16.172l11.015,11.58l0.026-10.523l2.285,0.006l-0.04,16.064l-11.015-11.551l-0.026,10.602
			L132.513,272.845z"/>
		<path d="M151.792,257.75l-0.037,15.144l-2.285-0.006l0.037-15.144L151.792,257.75z"/>
		<path d="M166.619,258.595l-0.007,2.702c-1.317-1.108-2.684-1.664-4.095-1.667c-1.556-0.004-2.869,0.553-3.938,1.667
			c-1.075,1.109-1.614,2.468-1.618,4.076c-0.004,1.589,0.529,2.931,1.599,4.024c1.069,1.096,2.382,1.645,3.938,1.648
			c0.804,0.002,1.488-0.127,2.051-0.387c0.314-0.131,0.64-0.307,0.977-0.527c0.337-0.221,0.692-0.488,1.066-0.802l-0.007,2.761
			c-1.31,0.739-2.683,1.107-4.121,1.104c-2.165-0.006-4.01-0.766-5.536-2.279c-1.52-1.527-2.277-3.366-2.271-5.518
			c0.004-1.929,0.646-3.646,1.925-5.153c1.574-1.847,3.606-2.767,6.097-2.761C164.04,257.485,165.353,257.856,166.619,258.595z"/>
	</g>
</g>
</svg>
