<svg version="1.1" id="spaceShip" data-stellar-ratio="1.5" xmlns="http://www.w3.org/2000/svg" xmlns:xlink="http://www.w3.org/1999/xlink" x="0px" y="0px"
	 width="383.068px" height="469px" viewBox="0 0 383.068 469" enable-background="new 0 0 383.068 469" xml:space="preserve">
		<g class="cow">
			<g>
				
					<rect x="255.627" y="270.487" transform="matrix(-0.4396 0.8982 -0.8982 -0.4396 648.9728 206.7472)" fill="#FFF4E2" width="8.726" height="70.677"/>
				<polygon fill="#141311" points="307.382,339.507 316.669,323.552 282.142,310.439 276.968,320.174 				"/>
			</g>
			<g>
				
					<rect x="213.581" y="339.881" transform="matrix(-0.9992 0.0398 -0.0398 -0.9992 461.2551 707.5742)" fill="#BFB7AA" width="20" height="37"/>
				<polygon fill="#BFB7AA" points="208.331,377.503 234.31,376.468 233.857,365.12 208.04,370.2 				"/>
			</g>
			<g>
				
					<rect x="147.584" y="334.006" transform="matrix(-1 -0.002 0.002 -1 314.4781 705.3193)" fill="#BFB7AA" width="20" height="37"/>
				<polygon fill="#BFB7AA" points="141.547,370.975 167.547,371.026 167.569,359.669 141.562,363.666 				"/>
			</g>
			<g>
				
					<rect x="247.63" y="329.598" transform="matrix(-0.7273 0.6863 -0.6863 -0.7273 683.9114 424.4458)" fill="#FFF4E2" width="20" height="37"/>
				<polygon fill="#FFF4E2" points="257.962,373.22 277.599,354.69 269.151,345.737 252.292,367.212 				"/>
			</g>
			<g>
				
					<rect x="114.096" y="323.781" transform="matrix(-0.8609 -0.5088 0.5088 -0.8609 55.8342 699.8289)" fill="#FFF4E2" width="19" height="37"/>
				<polygon fill="#FFF4E2" points="99.979,349.811 122.361,363.041 128.625,352.444 104.183,342.699 				"/>
			</g>
			<g>
				<polygon fill="#FFF4E2" points="123.583,344.839 255.344,352.557 250.896,307.642 231.245,285.595 123.583,280.932 				"/>
				<polygon fill="#141311" points="201.008,347 184.766,319 201.008,291 233.492,291 249.734,319 233.492,347 				"/>
				<polygon fill="#141311" points="145.642,322 134.766,303.5 145.642,285 167.395,285 178.271,303.5 167.395,322 				"/>
				<polygon fill="#141311" points="131.165,344 124.766,333 131.165,322 143.962,322 150.362,333 143.962,344 				"/>
			</g>
			<g>
				<polygon fill="#FFF4E2" points="112.827,314 146.184,314 156.76,262 102.251,262 				"/>
				<polygon fill="#666666" points="114.308,321 144.702,321 150.492,300 108.519,300 				"/>
				<g>
					<polygon points="145.613,287 148.507,284.574 149.164,280.855 147.274,277.583 143.724,276.292 140.174,277.584 
						138.285,280.856 138.941,284.574 141.835,287 					"/>
					<polygon points="117.176,287 120.07,284.574 120.726,280.855 118.837,277.583 115.287,276.292 111.736,277.584 
						109.847,280.856 110.503,284.574 113.397,287 					"/>
				</g>
				<g>
					<polygon fill="#141311" points="147.655,274.589 156.071,263.067 162.77,280.729 					"/>
					<polygon fill="#141311" points="111.499,274.589 103.083,263.067 96.384,280.729 					"/>
				</g>
				<g>
					<polygon fill="#B3B3B3" points="151.357,264.045 140.221,262.565 149.912,251.281 					"/>
					<polygon fill="#B3B3B3" points="107.521,264.045 118.659,262.565 108.968,251.281 					"/>
				</g>
				<g>
					<rect x="119.583" y="307" fill="#FFF4E2" width="4" height="2"/>
					<rect x="135.583" y="307" fill="#FFF4E2" width="4" height="2"/>
				</g>
			</g>
		</g>
		<g class="ship">
			<g>
				<polygon fill="#2E3E42" points="383.068,110 0,110 19.266,72 363.802,72 				"/>
			</g>
			<rect x="142.583" y="72" width="98" height="5"/>
			<g opacity="0.7">
				<polygon fill="#EADE71" points="382.935,469 0.188,469 139.43,93 243.638,93 				"/>
			</g>
			<g>
				<g>
					<g>
						<polygon fill="#F7931E" points="179.445,76.382 176.498,75.668 187.983,37.982 190.931,38.696 						"/>
					</g>
					<g>
						<polygon fill="#F7931E" points="182.052,77 160.066,77 164.794,37 177.324,37 						"/>
					</g>
					<g>
						<polygon fill="#F7931E" points="179.688,24 162.431,24 164.794,37 177.324,37 						"/>
					</g>
					<g>
						<polygon fill="#F7931E" points="162.417,24 165.39,16.369 168.363,24 						"/>
					</g>
					<g>
						<polygon fill="#F7931E" points="173.764,24 176.738,16.369 179.71,24 						"/>
					</g>
					<g>
						<polygon points="167.868,30.599 165.566,30.333 165.139,28.299 167.177,27.309 168.863,28.73 						"/>
					</g>
					<g>
						<polygon points="175.788,30.599 173.485,30.333 173.058,28.299 175.096,27.309 176.784,28.73 						"/>
					</g>
					<g>
						<polygon fill="#FABE78" points="174.723,44 167.396,44 165.031,77 177.088,77 						"/>
					</g>
					<g>
						<polygon fill="#F06540" points="172.52,35.397 171.02,34.24 169.52,35.397 169.1,34.965 171.02,33.483 172.94,34.965 						
							"/>
					</g>
					<g>
						<polygon fill="#F06540" points="169.31,33 171.02,31.146 172.73,33 						"/>
					</g>
					<g>
						<rect x="170.521" y="32.304" fill="#F06540" width="0.81" height="1.443"/>
					</g>
				</g>
				<g>
					<g>
						<polygon fill="#754C24" points="207.835,76.382 210.784,75.668 199.298,37.982 196.35,38.696 						"/>
					</g>
					<g>
						<polygon fill="#754C24" points="205.23,77 227.215,77 222.487,37 209.958,37 						"/>
					</g>
					<g>
						<polygon fill="#754C24" points="207.594,24 224.852,24 222.487,37 209.958,37 						"/>
					</g>
					<g>
						<polygon fill="#754C24" points="224.865,24 221.892,16.369 218.919,24 						"/>
					</g>
					<g>
						<polygon fill="#754C24" points="213.518,24 210.544,16.369 207.571,24 						"/>
					</g>
					<g>
						<polygon points="219.414,30.599 221.717,30.333 222.144,28.299 220.106,27.309 218.419,28.73 						"/>
					</g>
					<g>
						<polygon points="211.495,30.599 213.797,30.333 214.224,28.299 212.187,27.309 210.5,28.73 						"/>
					</g>
					<g>
						<polygon fill="#AC947C" points="212.558,44 219.887,44 222.25,77 210.194,77 						"/>
					</g>
					<g>
						<polygon fill="#AC947C" points="214.762,35.397 214.342,34.965 216.262,33.483 218.182,34.965 217.762,35.397 216.262,34.24 
													"/>
					</g>
					<g>
						<polygon fill="#AC947C" points="217.973,33 216.262,31.146 214.552,33 						"/>
					</g>
					<g>
						<rect x="215.867" y="32.304" fill="#AC947C" width="0.81" height="1.443"/>
					</g>
				</g>
				<g>
					<g>
						<rect x="190.583" y="66" fill="#F6A38C" width="2" height="8"/>
					</g>
					<g>
						<polygon fill="#F06540" points="194.515,66.64 191.413,67.92 188.753,65.874 189.195,62.548 192.297,61.267 194.957,63.313 
													"/>
					</g>
				</g>
				<g opacity="0.5">
					<polygon fill="#7FCDEE" points="275.748,80.363 259.666,30.74 217.558,0 165.511,0 123.404,30.751 107.32,80.36 					"/>
				</g>
			</g>
		</g>
</svg>
