<svg class="tree_shadow" version="1.1" xmlns="http://www.w3.org/2000/svg" xmlns:xlink="http://www.w3.org/1999/xlink" x="0px" y="0px"
	 width="263.934px" height="241.952px" viewBox="0 0 263.934 241.952" enable-background="new 0 0 263.934 241.952"
	 xml:space="preserve">

	<g>
		<polygon fill="#4C280E" points="61.26,87.206 29.859,97.673 5.095,75.712 11.732,43.285 43.132,32.819 67.896,54.78 		"/>
		<polygon fill="#4C280E" points="147.861,80.976 116.461,91.442 91.696,69.481 98.334,37.055 129.733,26.589 154.498,48.549 		"/>
		<polygon fill="#4C280E" points="220.444,87.206 189.045,97.673 164.279,75.712 170.916,43.285 202.316,32.819 227.08,54.78 		"/>
		<polygon fill="#4C280E" points="88.142,81.888 58.424,80.947 44.381,54.74 60.054,29.475 89.771,30.416 103.814,56.623 		"/>
		<polygon fill="#4C280E" points="248.26,85.315 218.543,84.373 204.5,58.167 220.173,32.902 249.891,33.843 263.934,60.049 		"/>
		<polygon fill="#4C280E" points="67.893,59.147 38.176,58.206 24.133,32 39.806,6.734 69.523,7.676 83.566,33.882 		"/>
		<polygon fill="#4C280E" points="118.639,55.813 89.332,60.828 70.336,37.956 80.646,10.069 109.951,5.054 128.947,27.926 		"/>
		<polygon fill="#4C280E" points="205.785,51.82 177.951,62.272 154.982,43.393 159.848,14.062 187.682,3.61 210.651,22.489 		"/>
		<polygon fill="#4C280E" points="172.479,41.161 148.715,59.028 121.359,47.382 117.768,17.867 141.533,0 168.889,11.647 		"/>
		<polygon fill="#4C280E" points="174.12,82.518 144.479,80.183 131.682,53.347 148.523,28.845 178.164,31.18 190.963,58.016 		"/>
	</g>
	<polygon fill="#4C280E" points="116.334,241.952 129.387,209.535 112.774,183.128 129.406,152.956 126.668,102.903 119.984,96.501 
		132.156,75.702 136.441,75.702 126.336,95.254 136.391,104.786 136.391,158.949 126.646,184.489 140.275,208.142 136.486,241.909 	
		"/>
	
		<rect x="150.094" y="73.977" transform="matrix(0.8176 0.5757 -0.5757 0.8176 88.6528 -68.384)" fill="#4C280E" width="4.362" height="63.549"/>
	
		<rect x="84.329" y="64.201" transform="matrix(0.6158 -0.7879 0.7879 0.6158 -61.7318 114.469)" fill="#4C280E" width="4.361" height="112.665"/>
	<g>
		<polygon fill="#4C280E" points="56.166,89.059 24.765,99.525 0,77.565 6.637,45.138 38.037,34.672 62.802,56.632 		"/>
		<polygon fill="#4C280E" points="142.766,82.829 111.365,93.295 86.602,71.334 93.238,38.907 124.638,28.441 149.402,50.402 		"/>
		<polygon fill="#4C280E" points="215.35,89.059 183.949,99.525 159.184,77.565 165.82,45.138 197.222,34.672 221.986,56.632 		"/>
		<polygon fill="#4C280E" points="83.046,83.741 53.33,82.8 39.285,56.593 54.959,31.328 84.676,32.269 98.721,58.475 		"/>
		<polygon fill="#4C280E" points="243.165,87.167 213.447,86.226 199.404,60.02 215.078,34.755 244.795,35.696 258.839,61.902 		"/>
		<polygon fill="#4C280E" points="62.798,61 33.08,60.059 19.037,33.853 34.711,8.587 64.428,9.529 78.471,35.735 		"/>
		<polygon fill="#4C280E" points="113.543,57.666 84.238,62.681 65.241,39.809 75.551,11.922 104.855,6.906 123.854,29.778 		"/>
		<polygon fill="#4C280E" points="200.69,53.673 172.855,64.125 149.887,45.246 154.752,15.914 182.586,5.462 205.557,24.342 		"/>
		<polygon fill="#4C280E" points="167.384,43.014 143.62,60.881 116.264,49.234 112.672,19.72 136.438,1.853 163.793,13.5 		"/>
		<polygon fill="#4C280E" points="169.025,84.371 139.385,82.036 126.588,55.2 143.429,30.698 173.069,33.032 185.867,59.869 		"/>
	</g>
</svg>
