<svg class="tree" data-stellar-ratio="0.9" version="1.1" xmlns="http://www.w3.org/2000/svg" xmlns:xlink="http://www.w3.org/1999/xlink" x="0px" y="0px"
	 width="569.816px" height="522.359px" viewBox="0 0 569.816 522.359" enable-background="new 0 0 569.816 522.359"
	 xml:space="preserve">
		<polygon fill="#324129" points="132.257,188.273 64.464,210.869 11,163.457 25.328,93.45 93.119,70.854 146.584,118.266 		"/>
		<polygon fill="#324129" points="319.223,174.823 251.431,197.418 197.967,150.006 212.294,79.999 280.086,57.403 333.551,104.815 
					"/>
		<polygon fill="#324129" points="475.926,188.273 408.134,210.869 354.669,163.457 368.997,93.45 436.789,70.854 490.253,118.266 
					"/>
		<polygon fill="#324129" points="190.292,176.791 126.134,174.759 95.815,118.181 129.653,63.635 193.811,65.667 224.13,122.245 		
			"/>
		<polygon fill="#324129" points="535.978,184.189 471.82,182.157 441.501,125.579 475.339,71.033 539.497,73.065 569.816,129.643 
					"/>
		<polygon fill="#324129" points="146.576,127.695 82.419,125.663 52.099,69.086 85.938,14.54 150.095,16.572 180.415,73.149 		"/>
		<polygon fill="#324129" points="256.133,120.497 192.863,131.324 151.852,81.945 174.108,21.738 237.378,10.91 278.391,60.29 		
			"/>
		<polygon fill="#324129" points="444.277,111.876 384.185,134.442 334.597,93.683 345.101,30.358 405.193,7.793 454.782,48.552 		
			"/>
		<polygon fill="#324129" points="372.372,88.865 321.065,127.439 262.006,102.294 254.252,38.574 305.558,0 364.618,25.145 		"/>
		<polygon fill="#324129" points="375.915,178.151 311.923,173.111 284.293,115.173 320.653,62.275 384.645,67.315 412.275,125.253 
					"/>
	<polygon fill="#564C40" points="251.159,522.359 279.339,452.374 243.472,395.363 279.382,330.222 273.468,222.161 
		259.039,208.678 285.316,164.109 294.567,164.109 272.719,205.984 294.391,226.226 294.391,343.162 273.386,398.3 302.829,449.367 
		294.658,522.267 	"/>
	
		<rect x="324.043" y="159.711" transform="matrix(0.8176 0.5758 -0.5758 0.8176 191.4176 -147.6445)" fill="#564C40" width="9.416" height="137.199"/>
	
		<rect x="182.061" y="138.607" transform="matrix(0.6158 -0.7879 0.7879 0.6158 -133.2758 247.1336)" fill="#564C40" width="9.415" height="243.237"/>
		<polygon fill="#425736" points="121.257,192.273 53.464,214.869 0,167.457 14.328,97.45 82.119,74.854 135.584,122.266 		"/>
		<polygon fill="#425736" points="308.223,178.823 240.431,201.418 186.967,154.006 201.294,83.999 269.086,61.403 322.551,108.815 
					"/>
		<polygon fill="#425736" points="464.926,192.273 397.134,214.869 343.669,167.457 357.997,97.45 425.789,74.854 479.253,122.266 
					"/>
		<polygon fill="#425736" points="179.292,180.791 115.134,178.759 84.815,122.181 118.653,67.635 182.811,69.667 213.13,126.245 		
			"/>
		<polygon fill="#425736" points="524.978,188.189 460.82,186.157 430.501,129.579 464.339,75.033 528.497,77.065 558.816,133.643 
					"/>
		<polygon fill="#425736" points="135.576,131.695 71.419,129.663 41.099,73.086 74.938,18.54 139.095,20.572 169.415,77.149 		"/>
		<polygon fill="#425736" points="245.133,124.497 181.863,135.324 140.852,85.945 163.108,25.738 226.378,14.91 267.391,64.29 		
			"/>
		<polygon fill="#425736" points="433.277,115.876 373.185,138.442 323.597,97.683 334.101,34.358 394.193,11.793 443.782,52.552 		
			"/>
		<polygon fill="#425736" points="361.372,92.865 310.065,131.439 251.006,106.294 243.252,42.574 294.558,4 353.618,29.145 		"/>
		<polygon fill="#425736" points="364.915,182.151 300.923,177.111 273.293,119.173 309.653,66.275 373.645,71.315 401.275,129.253 
					"/>
</svg>
